<svg width="25" height="24" fill="none" xmlns="http://www.w3.org/2000/svg"><path d="M17.2199 14.44C18.5899 14.67 20.0999 14.43 21.1599 13.72C22.5699 12.78 22.5699 11.24 21.1599 10.3C20.0899 9.59 18.5599 9.35 17.1899 9.59M7.24994 14.44C5.87994 14.67 4.36994 14.43 3.30994 13.72C1.89994 12.78 1.89994 11.24 3.30994 10.3C4.37994 9.59 5.90994 9.35 7.27994 9.59M18.2499 7.16C18.187 7.14999 18.1229 7.14999 18.0599 7.16C17.3926 7.13587 16.7607 6.85321 16.2979 6.37176C15.8352 5.89032 15.5777 5.2478 15.5799 4.58C15.5799 3.15 16.7299 2 18.1599 2C18.8442 2 19.5004 2.27182 19.9843 2.75566C20.4681 3.23951 20.7399 3.89574 20.7399 4.58C20.7381 5.24827 20.4779 5.88996 20.0139 6.37081C19.5498 6.85167 18.9177 7.13445 18.2499 7.16ZM6.21994 7.16C6.27994 7.15 6.34994 7.15 6.40994 7.16C7.07731 7.13587 7.70915 6.85321 8.17194 6.37176C8.63472 5.89032 8.89219 5.2478 8.88994 4.58C8.88994 3.15 7.73994 2 6.30994 2C5.62568 2 4.96945 2.27182 4.48561 2.75566C4.00176 3.23951 3.72994 3.89574 3.72994 4.58C3.73994 5.98 4.83994 7.11 6.21994 7.16ZM12.2499 14.63C12.187 14.62 12.1229 14.62 12.0599 14.63C11.3926 14.6059 10.7607 14.3232 10.2979 13.8418C9.83516 13.3603 9.57769 12.7178 9.57994 12.05C9.57994 10.62 10.7299 9.47 12.1599 9.47C12.8442 9.47 13.5004 9.74182 13.9843 10.2257C14.4681 10.7095 14.7399 11.3657 14.7399 12.05C14.7299 13.45 13.6299 14.59 12.2499 14.63ZM9.33994 17.78C7.92994 18.72 7.92994 20.26 9.33994 21.2C10.9399 22.27 13.5599 22.27 15.1599 21.2C16.5699 20.26 16.5699 18.72 15.1599 17.78C13.5699 16.72 10.9399 16.72 9.33994 17.78Z" stroke="white" stroke-linecap="round" stroke-linejoin="round"/></svg>