<svg width="24" height="24" fill="none" xmlns="http://www.w3.org/2000/svg"><path d="M12 14C13.1046 14 14 13.1046 14 12C14 10.8954 13.1046 10 12 10C10.8954 10 10 10.8954 10 12C10 13.1046 10.8954 14 12 14Z" stroke="black" stroke-width="1.5" stroke-linecap="round" stroke-linejoin="round"/><path d="M19.6233 10.3498C20.4702 11.3162 20.5587 12.7495 19.7303 13.7318C17.7738 16.0514 14.9922 18 12 18C9.00781 18 6.22619 16.0515 4.26975 13.7318C3.44131 12.7495 3.52981 11.3162 4.37669 10.3498C6.38322 8.06014 8.76263 6 12 6C15.2374 6 17.6168 8.06012 19.6233 10.3498Z" stroke="black" stroke-width="1.5" stroke-linecap="round" stroke-linejoin="round"/></svg>