<svg width="24" height="24" fill="none" xmlns="http://www.w3.org/2000/svg"><path d="M14 12.1001L10.5 14.1001V10.1001L14 12.1001Z" fill="black" stroke="black" stroke-width="1.5" stroke-linecap="round" stroke-linejoin="round"/><path d="M2 12.8076V11.3925C2 8.49715 2 7.04949 2.90549 6.11802C3.81099 5.18655 5.23656 5.14623 8.08769 5.06559C9.43873 5.02738 10.8188 5 12 5C13.1812 5 14.5613 5.02738 15.9123 5.06559C18.7634 5.14623 20.189 5.18655 21.0945 6.11802C22 7.04949 22 8.49715 22 11.3925V12.8076C22 15.7029 22 17.1506 21.0945 18.082C20.189 19.0135 18.7635 19.0538 15.9124 19.1345C14.5613 19.1727 13.1812 19.2001 12 19.2001C10.8188 19.2001 9.43867 19.1727 8.0876 19.1345C5.23651 19.0538 3.81097 19.0135 2.90548 18.082C2 17.1506 2 15.7029 2 12.8076Z" stroke="black" stroke-width="1.5"/></svg>