<svg width="24" height="24" fill="none" xmlns="http://www.w3.org/2000/svg"><path d="M5.49512 15.9832C10.4881 18.4796 13.4838 18.4796 18.4768 15.9832" stroke="black" stroke-width="1.5" stroke-linecap="round" stroke-linejoin="round"/><path d="M15.481 17.4809L16.4796 19.4781C16.4796 19.4781 20.645 18.1517 21.9718 15.9831C21.9718 14.9845 22.5012 7.84795 18.9761 5.49788C17.4782 4.49929 14.9817 4 14.9817 4L13.9831 5.99718H11.986" stroke="black" stroke-width="1.5" stroke-linecap="round" stroke-linejoin="round"/><path d="M8.51906 17.4809L7.52047 19.4781C7.52047 19.4781 3.35503 18.1517 2.02824 15.9831C2.02824 14.9845 1.4989 7.84795 5.024 5.49788C6.52188 4.49929 9.01836 4 9.01836 4L10.0169 5.99718H12.0141" stroke="black" stroke-width="1.5" stroke-linecap="round" stroke-linejoin="round"/><path d="M8.4908 13.9858C7.66354 13.9858 6.99292 13.0917 6.99292 11.9886C6.99292 10.8856 7.66354 9.99146 8.4908 9.99146C9.31806 9.99146 9.98868 10.8856 9.98868 11.9886C9.98868 13.0917 9.31806 13.9858 8.4908 13.9858Z" stroke="black" stroke-width="1.5" stroke-linecap="round" stroke-linejoin="round"/><path d="M15.4809 13.9858C14.6537 13.9858 13.983 13.0917 13.983 11.9886C13.983 10.8856 14.6537 9.99146 15.4809 9.99146C16.3081 9.99146 16.9788 10.8856 16.9788 11.9886C16.9788 13.0917 16.3081 13.9858 15.4809 13.9858Z" stroke="black" stroke-width="1.5" stroke-linecap="round" stroke-linejoin="round"/></svg>